<svg id="Capa_1" enable-background="new 0 0 512 512" height="512" viewBox="0 0 512 512" width="512" xmlns="http://www.w3.org/2000/svg"><g><circle cx="56.681" cy="56.455" r="14.557"/><circle cx="100.95" cy="56.455" r="14.557"/><circle cx="145.219" cy="56.455" r="14.557"/><path d="m293.022 382.801h-199.003c-4.123 0-7.465 3.342-7.465 7.465s3.342 7.465 7.465 7.465h199.003c4.123 0 7.465-3.342 7.465-7.465s-3.342-7.465-7.465-7.465z"/><path d="m94.019 156.117h199.003c4.123 0 7.465-3.342 7.465-7.465s-3.342-7.465-7.465-7.465h-199.003c-4.123 0-7.465 3.342-7.465 7.465s3.341 7.465 7.465 7.465z"/><path d="m94.019 188.334h154.206c4.123 0 7.465-3.342 7.465-7.465s-3.342-7.465-7.465-7.465h-154.206c-4.123 0-7.465 3.342-7.465 7.465s3.341 7.465 7.465 7.465z"/><path d="m507.335 368.961c-.284-1.73-.675-3.542-1.162-5.385l-19.762-74.846c-1.054-3.986-5.141-6.368-9.124-5.311-3.986 1.052-6.364 5.137-5.312 9.123l19.764 74.846c.365 1.385.655 2.727.862 3.984 1.968 12.046 2.967 24.341 2.967 36.544v61.79c0 1.321-1.075 2.396-2.412 2.396l-97.25.196c-1.321 0-2.396-1.075-2.396-2.396v-68.01c0-5.881-4.011-10.876-9.751-12.147l-22.904-5.074c-16.768-3.715-28.511-18.303-28.557-35.477-.017-6.569-2.164-12.92-6.045-17.884l-52.707-67.397c-1.488-1.902-1.15-4.661.751-6.149 5.562-4.348 12.21-6.64 19.322-6.64.136 0 .272.001.408.003 9.206.019 18.484 4.614 24.228 12.013 0 0 12.605 16.117 21.104 26.962 6.209 7.921 15.543 12.518 25.677 12.61 18.221 0 33.069-14.823 33.098-33.045l.095-59.153c.004-2.754-.471-5.46-1.414-8.047l-12.664-34.727v-81.163l51.73 115.661c2.811 6.284 6.509 12.124 10.991 17.356 5.526 6.449 9.592 14.199 11.76 22.412l4.927 18.66c1.052 3.986 5.136 6.365 9.123 5.311 3.986-1.052 6.364-5.137 5.312-9.123l-4.927-18.659c-2.739-10.375-7.876-20.166-14.857-28.314-3.548-4.142-6.475-8.764-8.7-13.739l-52.488-117.356c-2.655-5.935-7.204-10.671-12.87-13.566v-47.801c-.001-9.605-7.815-17.419-17.419-17.419h-53.882c-4.123 0-7.465 3.342-7.465 7.465s3.342 7.465 7.465 7.465h53.882c1.372 0 2.488 1.116 2.488 2.488v81.121h-352.789v-81.12c0-1.372 1.116-2.488 2.488-2.488h256.365c4.123 0 7.465-3.342 7.465-7.465s-3.341-7.466-7.465-7.466h-256.364c-9.605 0-17.419 7.814-17.419 17.419v477.163c0 9.605 7.814 17.419 17.419 17.419h67.473c4.123 0 7.465-3.342 7.465-7.465s-3.342-7.465-7.465-7.465h-36.804v-52.506c0-3.756 3.056-6.812 6.812-6.812h228.775c4.116 0 7.465 3.349 7.465 7.465v51.853h-169.485c-4.123 0-7.465 3.342-7.465 7.465s3.342 7.465 7.465 7.465h243.576c9.604 0 17.419-7.814 17.419-17.419v-11.988c3.094 2.867 7.223 4.636 11.769 4.636l97.251-.196c9.554 0 17.326-7.772 17.326-17.326v-61.79c0-13.008-1.065-26.114-3.163-38.957zm-242.235-122.956c-4.063 3.178-6.645 7.747-7.272 12.868-.626 5.12.78 10.177 3.957 14.24l30.858 39.459c0 .016-.002.032-.002.049v22.115c0 3.756-3.056 6.812-6.812 6.812h-229.427c-3.756 0-6.812-3.056-6.812-6.812v-109.178c0-3.756 3.056-6.812 6.812-6.812h228.775c4.116 0 7.465 3.349 7.465 7.465v10.003c-9.953.204-19.681 3.645-27.542 9.791zm101.633 251.065h-59.161v-51.853c0-12.349-10.047-22.395-22.395-22.395h-228.775c-11.989 0-21.742 9.753-21.742 21.742v52.506h-15.739c-1.372 0-2.488-1.116-2.488-2.488v-381.113h352.789v173.818c-1.326.313-2.7.495-4.116.495-5.501-.051-10.601-2.561-13.994-6.891-8.49-10.831-21.076-26.926-21.078-26.928-5.765-7.425-13.699-12.842-22.46-15.631v-12.123c0-12.348-10.047-22.395-22.395-22.395h-228.777c-11.989 0-21.742 9.753-21.742 21.742v109.177c0 11.989 9.753 21.742 21.742 21.742h229.428c11.989 0 21.742-9.753 21.742-21.742v-3.076l6.92 8.849c1.873 2.395 2.867 5.412 2.876 8.726.064 24.212 16.619 44.778 40.258 50.014l11.595 2.569v92.764c0 1.375-1.116 2.491-2.488 2.491z"/><path d="m50.819 368.244c-12.143 0-22.022 9.879-22.022 22.022s9.879 22.022 22.022 22.022 22.022-9.879 22.022-22.022-9.878-22.022-22.022-22.022zm0 29.114c-3.91 0-7.092-3.181-7.092-7.092s3.181-7.092 7.092-7.092 7.092 3.181 7.092 7.092-3.181 7.092-7.092 7.092z"/><path d="m50.819 170.674c12.143 0 22.022-9.879 22.022-22.022s-9.879-22.022-22.022-22.022-22.022 9.879-22.022 22.022 9.879 22.022 22.022 22.022zm0-29.114c3.91 0 7.092 3.181 7.092 7.092 0 3.91-3.181 7.092-7.092 7.092s-7.092-3.181-7.092-7.092c.001-3.91 3.182-7.092 7.092-7.092z"/></g></svg>